<?xml version="1.0" encoding="utf-8" standalone="no"?>
<!DOCTYPE svg PUBLIC "-//W3C//DTD SVG 1.1//EN"
  "http://www.w3.org/Graphics/SVG/1.1/DTD/svg11.dtd">
<svg xmlns:xlink="http://www.w3.org/1999/xlink" width="864pt" height="432pt" viewBox="0 0 864 432" xmlns="http://www.w3.org/2000/svg" version="1.1">
 <metadata>
  <rdf:RDF xmlns:dc="http://purl.org/dc/elements/1.1/" xmlns:cc="http://creativecommons.org/ns#" xmlns:rdf="http://www.w3.org/1999/02/22-rdf-syntax-ns#">
   <cc:Work>
    <dc:type rdf:resource="http://purl.org/dc/dcmitype/StillImage"/>
    <dc:date>2024-05-21T14:23:35.732926</dc:date>
    <dc:format>image/svg+xml</dc:format>
    <dc:creator>
     <cc:Agent>
      <dc:title>Matplotlib v3.8.4, https://matplotlib.org/</dc:title>
     </cc:Agent>
    </dc:creator>
   </cc:Work>
  </rdf:RDF>
 </metadata>
 <defs>
  <style type="text/css">*{stroke-linejoin: round; stroke-linecap: butt}</style>
 </defs>
 <g id="figure_1">
  <g id="patch_1">
   <path d="M 0 432 
L 864 432 
L 864 0 
L 0 0 
z
" style="fill: #ffffff"/>
  </g>
  <g id="axes_1">
   <g id="patch_2">
    <path d="M 47.72 353.599445 
L 853.2 353.599445 
L 853.2 26.88 
L 47.72 26.88 
z
" style="fill: #ffffff"/>
   </g>
   <g id="patch_3">
    <path d="M 84.332727 353.599445 
L 98.038026 353.599445 
L 98.038026 42.438069 
L 84.332727 42.438069 
z
" clip-path="url(#p982a6ef8d5)" style="fill: #1f77b4"/>
   </g>
   <g id="patch_4">
    <path d="M 123.490724 353.599445 
L 137.196023 353.599445 
L 137.196023 129.334915 
L 123.490724 129.334915 
z
" clip-path="url(#p982a6ef8d5)" style="fill: #1f77b4"/>
   </g>
   <g id="patch_5">
    <path d="M 162.648721 353.599445 
L 176.35402 353.599445 
L 176.35402 81.704179 
L 162.648721 81.704179 
z
" clip-path="url(#p982a6ef8d5)" style="fill: #1f77b4"/>
   </g>
   <g id="patch_6">
    <path d="M 201.806719 353.599445 
L 215.512018 353.599445 
L 215.512018 295.056692 
L 201.806719 295.056692 
z
" clip-path="url(#p982a6ef8d5)" style="fill: #1f77b4"/>
   </g>
   <g id="patch_7">
    <path d="M 240.964716 353.599445 
L 254.670015 353.599445 
L 254.670015 277.354886 
L 240.964716 277.354886 
z
" clip-path="url(#p982a6ef8d5)" style="fill: #1f77b4"/>
   </g>
   <g id="patch_8">
    <path d="M 280.122713 353.599445 
L 293.828012 353.599445 
L 293.828012 320.226939 
L 280.122713 320.226939 
z
" clip-path="url(#p982a6ef8d5)" style="fill: #1f77b4"/>
   </g>
   <g id="patch_9">
    <path d="M 319.28071 353.599445 
L 332.986009 353.599445 
L 332.986009 311.095818 
L 319.28071 311.095818 
z
" clip-path="url(#p982a6ef8d5)" style="fill: #1f77b4"/>
   </g>
   <g id="patch_10">
    <path d="M 358.438707 353.599445 
L 372.144006 353.599445 
L 372.144006 279.661335 
L 358.438707 279.661335 
z
" clip-path="url(#p982a6ef8d5)" style="fill: #1f77b4"/>
   </g>
   <g id="patch_11">
    <path d="M 397.596704 353.599445 
L 411.302003 353.599445 
L 411.302003 92.291877 
L 397.596704 92.291877 
z
" clip-path="url(#p982a6ef8d5)" style="fill: #1f77b4"/>
   </g>
   <g id="patch_12">
    <path d="M 436.754701 353.599445 
L 450.46 353.599445 
L 450.46 241.673997 
L 436.754701 241.673997 
z
" clip-path="url(#p982a6ef8d5)" style="fill: #1f77b4"/>
   </g>
   <g id="patch_13">
    <path d="M 475.912698 353.599445 
L 489.617997 353.599445 
L 489.617997 73.887991 
L 475.912698 73.887991 
z
" clip-path="url(#p982a6ef8d5)" style="fill: #1f77b4"/>
   </g>
   <g id="patch_14">
    <path d="M 515.070695 353.599445 
L 528.775994 353.599445 
L 528.775994 234.637871 
L 515.070695 234.637871 
z
" clip-path="url(#p982a6ef8d5)" style="fill: #1f77b4"/>
   </g>
   <g id="patch_15">
    <path d="M 554.228692 353.599445 
L 567.933991 353.599445 
L 567.933991 321.578258 
L 554.228692 321.578258 
z
" clip-path="url(#p982a6ef8d5)" style="fill: #1f77b4"/>
   </g>
   <g id="patch_16">
    <path d="M 593.386689 353.599445 
L 607.091988 353.599445 
L 607.091988 91.877932 
L 593.386689 91.877932 
z
" clip-path="url(#p982a6ef8d5)" style="fill: #1f77b4"/>
   </g>
   <g id="patch_17">
    <path d="M 632.544686 353.599445 
L 646.249985 353.599445 
L 646.249985 322.902816 
L 632.544686 322.902816 
z
" clip-path="url(#p982a6ef8d5)" style="fill: #1f77b4"/>
   </g>
   <g id="patch_18">
    <path d="M 671.702684 353.599445 
L 685.407982 353.599445 
L 685.407982 327.599906 
L 671.702684 327.599906 
z
" clip-path="url(#p982a6ef8d5)" style="fill: #1f77b4"/>
   </g>
   <g id="patch_19">
    <path d="M 710.860681 353.599445 
L 724.56598 353.599445 
L 724.56598 335.982033 
L 710.860681 335.982033 
z
" clip-path="url(#p982a6ef8d5)" style="fill: #1f77b4"/>
   </g>
   <g id="patch_20">
    <path d="M 750.018678 353.599445 
L 763.723977 353.599445 
L 763.723977 328.415022 
L 750.018678 328.415022 
z
" clip-path="url(#p982a6ef8d5)" style="fill: #1f77b4"/>
   </g>
   <g id="patch_21">
    <path d="M 789.176675 353.599445 
L 802.881974 353.599445 
L 802.881974 278.73049 
L 789.176675 278.73049 
z
" clip-path="url(#p982a6ef8d5)" style="fill: #1f77b4"/>
   </g>
   <g id="patch_22">
    <path d="M 98.038026 353.599445 
L 111.743325 353.599445 
L 111.743325 62.76892 
L 98.038026 62.76892 
z
" clip-path="url(#p982a6ef8d5)" style="fill: #ff7f0e"/>
   </g>
   <g id="patch_23">
    <path d="M 137.196023 353.599445 
L 150.901322 353.599445 
L 150.901322 199.36412 
L 137.196023 199.36412 
z
" clip-path="url(#p982a6ef8d5)" style="fill: #ff7f0e"/>
   </g>
   <g id="patch_24">
    <path d="M 176.35402 353.599445 
L 190.059319 353.599445 
L 190.059319 121.034735 
L 176.35402 121.034735 
z
" clip-path="url(#p982a6ef8d5)" style="fill: #ff7f0e"/>
   </g>
   <g id="patch_25">
    <path d="M 215.512018 353.599445 
L 229.217316 353.599445 
L 229.217316 334.171022 
L 215.512018 334.171022 
z
" clip-path="url(#p982a6ef8d5)" style="fill: #ff7f0e"/>
   </g>
   <g id="patch_26">
    <path d="M 254.670015 353.599445 
L 268.375314 353.599445 
L 268.375314 334.345627 
L 254.670015 334.345627 
z
" clip-path="url(#p982a6ef8d5)" style="fill: #ff7f0e"/>
   </g>
   <g id="patch_27">
    <path d="M 293.828012 353.599445 
L 307.533311 353.599445 
L 307.533311 342.563053 
L 293.828012 342.563053 
z
" clip-path="url(#p982a6ef8d5)" style="fill: #ff7f0e"/>
   </g>
   <g id="patch_28">
    <path d="M 332.986009 353.599445 
L 346.691308 353.599445 
L 346.691308 336.660495 
L 332.986009 336.660495 
z
" clip-path="url(#p982a6ef8d5)" style="fill: #ff7f0e"/>
   </g>
   <g id="patch_29">
    <path d="M 372.144006 353.599445 
L 385.849305 353.599445 
L 385.849305 319.794288 
L 372.144006 319.794288 
z
" clip-path="url(#p982a6ef8d5)" style="fill: #ff7f0e"/>
   </g>
   <g id="patch_30">
    <path d="M 411.302003 353.599445 
L 425.007302 353.599445 
L 425.007302 117.764816 
L 411.302003 117.764816 
z
" clip-path="url(#p982a6ef8d5)" style="fill: #ff7f0e"/>
   </g>
   <g id="patch_31">
    <path d="M 450.46 353.599445 
L 464.165299 353.599445 
L 464.165299 275.912501 
L 450.46 275.912501 
z
" clip-path="url(#p982a6ef8d5)" style="fill: #ff7f0e"/>
   </g>
   <g id="patch_32">
    <path d="M 489.617997 353.599445 
L 503.323296 353.599445 
L 503.323296 130.204377 
L 489.617997 130.204377 
z
" clip-path="url(#p982a6ef8d5)" style="fill: #ff7f0e"/>
   </g>
   <g id="patch_33">
    <path d="M 528.775994 353.599445 
L 542.481293 353.599445 
L 542.481293 277.589727 
L 528.775994 277.589727 
z
" clip-path="url(#p982a6ef8d5)" style="fill: #ff7f0e"/>
   </g>
   <g id="patch_34">
    <path d="M 567.933991 353.599445 
L 581.63929 353.599445 
L 581.63929 350.670862 
L 567.933991 350.670862 
z
" clip-path="url(#p982a6ef8d5)" style="fill: #ff7f0e"/>
   </g>
   <g id="patch_35">
    <path d="M 607.091988 353.599445 
L 620.797287 353.599445 
L 620.797287 149.329339 
L 607.091988 149.329339 
z
" clip-path="url(#p982a6ef8d5)" style="fill: #ff7f0e"/>
   </g>
   <g id="patch_36">
    <path d="M 646.249985 353.599445 
L 659.955284 353.599445 
L 659.955284 330.712125 
L 646.249985 330.712125 
z
" clip-path="url(#p982a6ef8d5)" style="fill: #ff7f0e"/>
   </g>
   <g id="patch_37">
    <path d="M 685.407982 353.599445 
L 699.113281 353.599445 
L 699.113281 350.261939 
L 685.407982 350.261939 
z
" clip-path="url(#p982a6ef8d5)" style="fill: #ff7f0e"/>
   </g>
   <g id="patch_38">
    <path d="M 724.56598 353.599445 
L 738.271279 353.599445 
L 738.271279 349.812184 
L 724.56598 349.812184 
z
" clip-path="url(#p982a6ef8d5)" style="fill: #ff7f0e"/>
   </g>
   <g id="patch_39">
    <path d="M 763.723977 353.599445 
L 777.429276 353.599445 
L 777.429276 352.18602 
L 763.723977 352.18602 
z
" clip-path="url(#p982a6ef8d5)" style="fill: #ff7f0e"/>
   </g>
   <g id="patch_40">
    <path d="M 802.881974 353.599445 
L 816.587273 353.599445 
L 816.587273 330.641966 
L 802.881974 330.641966 
z
" clip-path="url(#p982a6ef8d5)" style="fill: #ff7f0e"/>
   </g>
   <g id="matplotlib.axis_1">
    <g id="xtick_1">
     <g id="line2d_1">
      <defs>
       <path id="m7e4fea11a4" d="M 0 0 
L 0 3.5 
" style="stroke: #000000; stroke-width: 0.8"/>
      </defs>
      <g>
       <use xlink:href="#m7e4fea11a4" x="98.038026" y="353.599445" style="stroke: #000000; stroke-width: 0.8"/>
      </g>
     </g>
     <g id="text_1">
      <!-- road -->
      <g transform="translate(80.670821 381.868996) rotate(-45) scale(0.1 -0.1)">
       <defs>
        <path id="DejaVuSans-72" d="M 2631 2963 
Q 2534 3019 2420 3045 
Q 2306 3072 2169 3072 
Q 1681 3072 1420 2755 
Q 1159 2438 1159 1844 
L 1159 0 
L 581 0 
L 581 3500 
L 1159 3500 
L 1159 2956 
Q 1341 3275 1631 3429 
Q 1922 3584 2338 3584 
Q 2397 3584 2469 3576 
Q 2541 3569 2628 3553 
L 2631 2963 
z
" transform="scale(0.015625)"/>
        <path id="DejaVuSans-6f" d="M 1959 3097 
Q 1497 3097 1228 2736 
Q 959 2375 959 1747 
Q 959 1119 1226 758 
Q 1494 397 1959 397 
Q 2419 397 2687 759 
Q 2956 1122 2956 1747 
Q 2956 2369 2687 2733 
Q 2419 3097 1959 3097 
z
M 1959 3584 
Q 2709 3584 3137 3096 
Q 3566 2609 3566 1747 
Q 3566 888 3137 398 
Q 2709 -91 1959 -91 
Q 1206 -91 779 398 
Q 353 888 353 1747 
Q 353 2609 779 3096 
Q 1206 3584 1959 3584 
z
" transform="scale(0.015625)"/>
        <path id="DejaVuSans-61" d="M 2194 1759 
Q 1497 1759 1228 1600 
Q 959 1441 959 1056 
Q 959 750 1161 570 
Q 1363 391 1709 391 
Q 2188 391 2477 730 
Q 2766 1069 2766 1631 
L 2766 1759 
L 2194 1759 
z
M 3341 1997 
L 3341 0 
L 2766 0 
L 2766 531 
Q 2569 213 2275 61 
Q 1981 -91 1556 -91 
Q 1019 -91 701 211 
Q 384 513 384 1019 
Q 384 1609 779 1909 
Q 1175 2209 1959 2209 
L 2766 2209 
L 2766 2266 
Q 2766 2663 2505 2880 
Q 2244 3097 1772 3097 
Q 1472 3097 1187 3025 
Q 903 2953 641 2809 
L 641 3341 
Q 956 3463 1253 3523 
Q 1550 3584 1831 3584 
Q 2591 3584 2966 3190 
Q 3341 2797 3341 1997 
z
" transform="scale(0.015625)"/>
        <path id="DejaVuSans-64" d="M 2906 2969 
L 2906 4863 
L 3481 4863 
L 3481 0 
L 2906 0 
L 2906 525 
Q 2725 213 2448 61 
Q 2172 -91 1784 -91 
Q 1150 -91 751 415 
Q 353 922 353 1747 
Q 353 2572 751 3078 
Q 1150 3584 1784 3584 
Q 2172 3584 2448 3432 
Q 2725 3281 2906 2969 
z
M 947 1747 
Q 947 1113 1208 752 
Q 1469 391 1925 391 
Q 2381 391 2643 752 
Q 2906 1113 2906 1747 
Q 2906 2381 2643 2742 
Q 2381 3103 1925 3103 
Q 1469 3103 1208 2742 
Q 947 2381 947 1747 
z
" transform="scale(0.015625)"/>
       </defs>
       <use xlink:href="#DejaVuSans-72"/>
       <use xlink:href="#DejaVuSans-6f" x="38.863281"/>
       <use xlink:href="#DejaVuSans-61" x="100.044922"/>
       <use xlink:href="#DejaVuSans-64" x="161.324219"/>
      </g>
     </g>
    </g>
    <g id="xtick_2">
     <g id="line2d_2">
      <g>
       <use xlink:href="#m7e4fea11a4" x="137.196023" y="353.599445" style="stroke: #000000; stroke-width: 0.8"/>
      </g>
     </g>
     <g id="text_2">
      <!-- sidewalk -->
      <g transform="translate(105.06244 396.635374) rotate(-45) scale(0.1 -0.1)">
       <defs>
        <path id="DejaVuSans-73" d="M 2834 3397 
L 2834 2853 
Q 2591 2978 2328 3040 
Q 2066 3103 1784 3103 
Q 1356 3103 1142 2972 
Q 928 2841 928 2578 
Q 928 2378 1081 2264 
Q 1234 2150 1697 2047 
L 1894 2003 
Q 2506 1872 2764 1633 
Q 3022 1394 3022 966 
Q 3022 478 2636 193 
Q 2250 -91 1575 -91 
Q 1294 -91 989 -36 
Q 684 19 347 128 
L 347 722 
Q 666 556 975 473 
Q 1284 391 1588 391 
Q 1994 391 2212 530 
Q 2431 669 2431 922 
Q 2431 1156 2273 1281 
Q 2116 1406 1581 1522 
L 1381 1569 
Q 847 1681 609 1914 
Q 372 2147 372 2553 
Q 372 3047 722 3315 
Q 1072 3584 1716 3584 
Q 2034 3584 2315 3537 
Q 2597 3491 2834 3397 
z
" transform="scale(0.015625)"/>
        <path id="DejaVuSans-69" d="M 603 3500 
L 1178 3500 
L 1178 0 
L 603 0 
L 603 3500 
z
M 603 4863 
L 1178 4863 
L 1178 4134 
L 603 4134 
L 603 4863 
z
" transform="scale(0.015625)"/>
        <path id="DejaVuSans-65" d="M 3597 1894 
L 3597 1613 
L 953 1613 
Q 991 1019 1311 708 
Q 1631 397 2203 397 
Q 2534 397 2845 478 
Q 3156 559 3463 722 
L 3463 178 
Q 3153 47 2828 -22 
Q 2503 -91 2169 -91 
Q 1331 -91 842 396 
Q 353 884 353 1716 
Q 353 2575 817 3079 
Q 1281 3584 2069 3584 
Q 2775 3584 3186 3129 
Q 3597 2675 3597 1894 
z
M 3022 2063 
Q 3016 2534 2758 2815 
Q 2500 3097 2075 3097 
Q 1594 3097 1305 2825 
Q 1016 2553 972 2059 
L 3022 2063 
z
" transform="scale(0.015625)"/>
        <path id="DejaVuSans-77" d="M 269 3500 
L 844 3500 
L 1563 769 
L 2278 3500 
L 2956 3500 
L 3675 769 
L 4391 3500 
L 4966 3500 
L 4050 0 
L 3372 0 
L 2619 2869 
L 1863 0 
L 1184 0 
L 269 3500 
z
" transform="scale(0.015625)"/>
        <path id="DejaVuSans-6c" d="M 603 4863 
L 1178 4863 
L 1178 0 
L 603 0 
L 603 4863 
z
" transform="scale(0.015625)"/>
        <path id="DejaVuSans-6b" d="M 581 4863 
L 1159 4863 
L 1159 1991 
L 2875 3500 
L 3609 3500 
L 1753 1863 
L 3688 0 
L 2938 0 
L 1159 1709 
L 1159 0 
L 581 0 
L 581 4863 
z
" transform="scale(0.015625)"/>
       </defs>
       <use xlink:href="#DejaVuSans-73"/>
       <use xlink:href="#DejaVuSans-69" x="52.099609"/>
       <use xlink:href="#DejaVuSans-64" x="79.882812"/>
       <use xlink:href="#DejaVuSans-65" x="143.359375"/>
       <use xlink:href="#DejaVuSans-77" x="204.882812"/>
       <use xlink:href="#DejaVuSans-61" x="286.669922"/>
       <use xlink:href="#DejaVuSans-6c" x="347.949219"/>
       <use xlink:href="#DejaVuSans-6b" x="375.732422"/>
      </g>
     </g>
    </g>
    <g id="xtick_3">
     <g id="line2d_3">
      <g>
       <use xlink:href="#m7e4fea11a4" x="176.35402" y="353.599445" style="stroke: #000000; stroke-width: 0.8"/>
      </g>
     </g>
     <g id="text_3">
      <!-- building -->
      <g transform="translate(146.560518 394.295293) rotate(-45) scale(0.1 -0.1)">
       <defs>
        <path id="DejaVuSans-62" d="M 3116 1747 
Q 3116 2381 2855 2742 
Q 2594 3103 2138 3103 
Q 1681 3103 1420 2742 
Q 1159 2381 1159 1747 
Q 1159 1113 1420 752 
Q 1681 391 2138 391 
Q 2594 391 2855 752 
Q 3116 1113 3116 1747 
z
M 1159 2969 
Q 1341 3281 1617 3432 
Q 1894 3584 2278 3584 
Q 2916 3584 3314 3078 
Q 3713 2572 3713 1747 
Q 3713 922 3314 415 
Q 2916 -91 2278 -91 
Q 1894 -91 1617 61 
Q 1341 213 1159 525 
L 1159 0 
L 581 0 
L 581 4863 
L 1159 4863 
L 1159 2969 
z
" transform="scale(0.015625)"/>
        <path id="DejaVuSans-75" d="M 544 1381 
L 544 3500 
L 1119 3500 
L 1119 1403 
Q 1119 906 1312 657 
Q 1506 409 1894 409 
Q 2359 409 2629 706 
Q 2900 1003 2900 1516 
L 2900 3500 
L 3475 3500 
L 3475 0 
L 2900 0 
L 2900 538 
Q 2691 219 2414 64 
Q 2138 -91 1772 -91 
Q 1169 -91 856 284 
Q 544 659 544 1381 
z
M 1991 3584 
L 1991 3584 
z
" transform="scale(0.015625)"/>
        <path id="DejaVuSans-6e" d="M 3513 2113 
L 3513 0 
L 2938 0 
L 2938 2094 
Q 2938 2591 2744 2837 
Q 2550 3084 2163 3084 
Q 1697 3084 1428 2787 
Q 1159 2491 1159 1978 
L 1159 0 
L 581 0 
L 581 3500 
L 1159 3500 
L 1159 2956 
Q 1366 3272 1645 3428 
Q 1925 3584 2291 3584 
Q 2894 3584 3203 3211 
Q 3513 2838 3513 2113 
z
" transform="scale(0.015625)"/>
        <path id="DejaVuSans-67" d="M 2906 1791 
Q 2906 2416 2648 2759 
Q 2391 3103 1925 3103 
Q 1463 3103 1205 2759 
Q 947 2416 947 1791 
Q 947 1169 1205 825 
Q 1463 481 1925 481 
Q 2391 481 2648 825 
Q 2906 1169 2906 1791 
z
M 3481 434 
Q 3481 -459 3084 -895 
Q 2688 -1331 1869 -1331 
Q 1566 -1331 1297 -1286 
Q 1028 -1241 775 -1147 
L 775 -588 
Q 1028 -725 1275 -790 
Q 1522 -856 1778 -856 
Q 2344 -856 2625 -561 
Q 2906 -266 2906 331 
L 2906 616 
Q 2728 306 2450 153 
Q 2172 0 1784 0 
Q 1141 0 747 490 
Q 353 981 353 1791 
Q 353 2603 747 3093 
Q 1141 3584 1784 3584 
Q 2172 3584 2450 3431 
Q 2728 3278 2906 2969 
L 2906 3500 
L 3481 3500 
L 3481 434 
z
" transform="scale(0.015625)"/>
       </defs>
       <use xlink:href="#DejaVuSans-62"/>
       <use xlink:href="#DejaVuSans-75" x="63.476562"/>
       <use xlink:href="#DejaVuSans-69" x="126.855469"/>
       <use xlink:href="#DejaVuSans-6c" x="154.638672"/>
       <use xlink:href="#DejaVuSans-64" x="182.421875"/>
       <use xlink:href="#DejaVuSans-69" x="245.898438"/>
       <use xlink:href="#DejaVuSans-6e" x="273.681641"/>
       <use xlink:href="#DejaVuSans-67" x="337.060547"/>
      </g>
     </g>
    </g>
    <g id="xtick_4">
     <g id="line2d_4">
      <g>
       <use xlink:href="#m7e4fea11a4" x="215.512018" y="353.599445" style="stroke: #000000; stroke-width: 0.8"/>
      </g>
     </g>
     <g id="text_4">
      <!-- wall -->
      <g transform="translate(199.996548 380.01726) rotate(-45) scale(0.1 -0.1)">
       <use xlink:href="#DejaVuSans-77"/>
       <use xlink:href="#DejaVuSans-61" x="81.787109"/>
       <use xlink:href="#DejaVuSans-6c" x="143.066406"/>
       <use xlink:href="#DejaVuSans-6c" x="170.849609"/>
      </g>
     </g>
    </g>
    <g id="xtick_5">
     <g id="line2d_5">
      <g>
       <use xlink:href="#m7e4fea11a4" x="254.670015" y="353.599445" style="stroke: #000000; stroke-width: 0.8"/>
      </g>
     </g>
     <g id="text_5">
      <!-- fence -->
      <g transform="translate(233.639112 385.532693) rotate(-45) scale(0.1 -0.1)">
       <defs>
        <path id="DejaVuSans-66" d="M 2375 4863 
L 2375 4384 
L 1825 4384 
Q 1516 4384 1395 4259 
Q 1275 4134 1275 3809 
L 1275 3500 
L 2222 3500 
L 2222 3053 
L 1275 3053 
L 1275 0 
L 697 0 
L 697 3053 
L 147 3053 
L 147 3500 
L 697 3500 
L 697 3744 
Q 697 4328 969 4595 
Q 1241 4863 1831 4863 
L 2375 4863 
z
" transform="scale(0.015625)"/>
        <path id="DejaVuSans-63" d="M 3122 3366 
L 3122 2828 
Q 2878 2963 2633 3030 
Q 2388 3097 2138 3097 
Q 1578 3097 1268 2742 
Q 959 2388 959 1747 
Q 959 1106 1268 751 
Q 1578 397 2138 397 
Q 2388 397 2633 464 
Q 2878 531 3122 666 
L 3122 134 
Q 2881 22 2623 -34 
Q 2366 -91 2075 -91 
Q 1284 -91 818 406 
Q 353 903 353 1747 
Q 353 2603 823 3093 
Q 1294 3584 2113 3584 
Q 2378 3584 2631 3529 
Q 2884 3475 3122 3366 
z
" transform="scale(0.015625)"/>
       </defs>
       <use xlink:href="#DejaVuSans-66"/>
       <use xlink:href="#DejaVuSans-65" x="35.205078"/>
       <use xlink:href="#DejaVuSans-6e" x="96.728516"/>
       <use xlink:href="#DejaVuSans-63" x="160.107422"/>
       <use xlink:href="#DejaVuSans-65" x="215.087891"/>
      </g>
     </g>
    </g>
    <g id="xtick_6">
     <g id="line2d_6">
      <g>
       <use xlink:href="#m7e4fea11a4" x="293.828012" y="353.599445" style="stroke: #000000; stroke-width: 0.8"/>
      </g>
     </g>
     <g id="text_6">
      <!-- pole -->
      <g transform="translate(277.22647 381.103332) rotate(-45) scale(0.1 -0.1)">
       <defs>
        <path id="DejaVuSans-70" d="M 1159 525 
L 1159 -1331 
L 581 -1331 
L 581 3500 
L 1159 3500 
L 1159 2969 
Q 1341 3281 1617 3432 
Q 1894 3584 2278 3584 
Q 2916 3584 3314 3078 
Q 3713 2572 3713 1747 
Q 3713 922 3314 415 
Q 2916 -91 2278 -91 
Q 1894 -91 1617 61 
Q 1341 213 1159 525 
z
M 3116 1747 
Q 3116 2381 2855 2742 
Q 2594 3103 2138 3103 
Q 1681 3103 1420 2742 
Q 1159 2381 1159 1747 
Q 1159 1113 1420 752 
Q 1681 391 2138 391 
Q 2594 391 2855 752 
Q 3116 1113 3116 1747 
z
" transform="scale(0.015625)"/>
       </defs>
       <use xlink:href="#DejaVuSans-70"/>
       <use xlink:href="#DejaVuSans-6f" x="63.476562"/>
       <use xlink:href="#DejaVuSans-6c" x="124.658203"/>
       <use xlink:href="#DejaVuSans-65" x="152.441406"/>
      </g>
     </g>
    </g>
    <g id="xtick_7">
     <g id="line2d_7">
      <g>
       <use xlink:href="#m7e4fea11a4" x="332.986009" y="353.599445" style="stroke: #000000; stroke-width: 0.8"/>
      </g>
     </g>
     <g id="text_7">
      <!-- light -->
      <g transform="translate(315.844194 381.643606) rotate(-45) scale(0.1 -0.1)">
       <defs>
        <path id="DejaVuSans-68" d="M 3513 2113 
L 3513 0 
L 2938 0 
L 2938 2094 
Q 2938 2591 2744 2837 
Q 2550 3084 2163 3084 
Q 1697 3084 1428 2787 
Q 1159 2491 1159 1978 
L 1159 0 
L 581 0 
L 581 4863 
L 1159 4863 
L 1159 2956 
Q 1366 3272 1645 3428 
Q 1925 3584 2291 3584 
Q 2894 3584 3203 3211 
Q 3513 2838 3513 2113 
z
" transform="scale(0.015625)"/>
        <path id="DejaVuSans-74" d="M 1172 4494 
L 1172 3500 
L 2356 3500 
L 2356 3053 
L 1172 3053 
L 1172 1153 
Q 1172 725 1289 603 
Q 1406 481 1766 481 
L 2356 481 
L 2356 0 
L 1766 0 
Q 1100 0 847 248 
Q 594 497 594 1153 
L 594 3053 
L 172 3053 
L 172 3500 
L 594 3500 
L 594 4494 
L 1172 4494 
z
" transform="scale(0.015625)"/>
       </defs>
       <use xlink:href="#DejaVuSans-6c"/>
       <use xlink:href="#DejaVuSans-69" x="27.783203"/>
       <use xlink:href="#DejaVuSans-67" x="55.566406"/>
       <use xlink:href="#DejaVuSans-68" x="119.042969"/>
       <use xlink:href="#DejaVuSans-74" x="182.421875"/>
      </g>
     </g>
    </g>
    <g id="xtick_8">
     <g id="line2d_8">
      <g>
       <use xlink:href="#m7e4fea11a4" x="372.144006" y="353.599445" style="stroke: #000000; stroke-width: 0.8"/>
      </g>
     </g>
     <g id="text_8">
      <!-- sign -->
      <g transform="translate(356.055117 380.590679) rotate(-45) scale(0.1 -0.1)">
       <use xlink:href="#DejaVuSans-73"/>
       <use xlink:href="#DejaVuSans-69" x="52.099609"/>
       <use xlink:href="#DejaVuSans-67" x="79.882812"/>
       <use xlink:href="#DejaVuSans-6e" x="143.359375"/>
      </g>
     </g>
    </g>
    <g id="xtick_9">
     <g id="line2d_9">
      <g>
       <use xlink:href="#m7e4fea11a4" x="411.302003" y="353.599445" style="stroke: #000000; stroke-width: 0.8"/>
      </g>
     </g>
     <g id="text_9">
      <!-- vegetation -->
      <g transform="translate(371.80567 403.998124) rotate(-45) scale(0.1 -0.1)">
       <defs>
        <path id="DejaVuSans-76" d="M 191 3500 
L 800 3500 
L 1894 563 
L 2988 3500 
L 3597 3500 
L 2284 0 
L 1503 0 
L 191 3500 
z
" transform="scale(0.015625)"/>
       </defs>
       <use xlink:href="#DejaVuSans-76"/>
       <use xlink:href="#DejaVuSans-65" x="59.179688"/>
       <use xlink:href="#DejaVuSans-67" x="120.703125"/>
       <use xlink:href="#DejaVuSans-65" x="184.179688"/>
       <use xlink:href="#DejaVuSans-74" x="245.703125"/>
       <use xlink:href="#DejaVuSans-61" x="284.912109"/>
       <use xlink:href="#DejaVuSans-74" x="346.191406"/>
       <use xlink:href="#DejaVuSans-69" x="385.400391"/>
       <use xlink:href="#DejaVuSans-6f" x="413.183594"/>
       <use xlink:href="#DejaVuSans-6e" x="474.365234"/>
      </g>
     </g>
    </g>
    <g id="xtick_10">
     <g id="line2d_10">
      <g>
       <use xlink:href="#m7e4fea11a4" x="450.46" y="353.599445" style="stroke: #000000; stroke-width: 0.8"/>
      </g>
     </g>
     <g id="text_10">
      <!-- terrain -->
      <g transform="translate(425.397484 389.564306) rotate(-45) scale(0.1 -0.1)">
       <use xlink:href="#DejaVuSans-74"/>
       <use xlink:href="#DejaVuSans-65" x="39.208984"/>
       <use xlink:href="#DejaVuSans-72" x="100.732422"/>
       <use xlink:href="#DejaVuSans-72" x="140.095703"/>
       <use xlink:href="#DejaVuSans-61" x="181.208984"/>
       <use xlink:href="#DejaVuSans-69" x="242.488281"/>
       <use xlink:href="#DejaVuSans-6e" x="270.271484"/>
      </g>
     </g>
    </g>
    <g id="xtick_11">
     <g id="line2d_11">
      <g>
       <use xlink:href="#m7e4fea11a4" x="489.617997" y="353.599445" style="stroke: #000000; stroke-width: 0.8"/>
      </g>
     </g>
     <g id="text_11">
      <!-- sky -->
      <g transform="translate(476.440399 377.679388) rotate(-45) scale(0.1 -0.1)">
       <defs>
        <path id="DejaVuSans-79" d="M 2059 -325 
Q 1816 -950 1584 -1140 
Q 1353 -1331 966 -1331 
L 506 -1331 
L 506 -850 
L 844 -850 
Q 1081 -850 1212 -737 
Q 1344 -625 1503 -206 
L 1606 56 
L 191 3500 
L 800 3500 
L 1894 763 
L 2988 3500 
L 3597 3500 
L 2059 -325 
z
" transform="scale(0.015625)"/>
       </defs>
       <use xlink:href="#DejaVuSans-73"/>
       <use xlink:href="#DejaVuSans-6b" x="52.099609"/>
       <use xlink:href="#DejaVuSans-79" x="106.384766"/>
      </g>
     </g>
    </g>
    <g id="xtick_12">
     <g id="line2d_12">
      <g>
       <use xlink:href="#m7e4fea11a4" x="528.775994" y="353.599445" style="stroke: #000000; stroke-width: 0.8"/>
      </g>
     </g>
     <g id="text_12">
      <!-- person -->
      <g transform="translate(503.067138 390.210646) rotate(-45) scale(0.1 -0.1)">
       <use xlink:href="#DejaVuSans-70"/>
       <use xlink:href="#DejaVuSans-65" x="63.476562"/>
       <use xlink:href="#DejaVuSans-72" x="125"/>
       <use xlink:href="#DejaVuSans-73" x="166.113281"/>
       <use xlink:href="#DejaVuSans-6f" x="218.212891"/>
       <use xlink:href="#DejaVuSans-6e" x="279.394531"/>
      </g>
     </g>
    </g>
    <g id="xtick_13">
     <g id="line2d_13">
      <g>
       <use xlink:href="#m7e4fea11a4" x="567.933991" y="353.599445" style="stroke: #000000; stroke-width: 0.8"/>
      </g>
     </g>
     <g id="text_13">
      <!-- rider -->
      <g transform="translate(549.845316 382.590466) rotate(-45) scale(0.1 -0.1)">
       <use xlink:href="#DejaVuSans-72"/>
       <use xlink:href="#DejaVuSans-69" x="41.113281"/>
       <use xlink:href="#DejaVuSans-64" x="68.896484"/>
       <use xlink:href="#DejaVuSans-65" x="132.373047"/>
       <use xlink:href="#DejaVuSans-72" x="193.896484"/>
      </g>
     </g>
    </g>
    <g id="xtick_14">
     <g id="line2d_14">
      <g>
       <use xlink:href="#m7e4fea11a4" x="607.091988" y="353.599445" style="stroke: #000000; stroke-width: 0.8"/>
      </g>
     </g>
     <g id="text_14">
      <!-- car -->
      <g transform="translate(594.493334 377.100445) rotate(-45) scale(0.1 -0.1)">
       <use xlink:href="#DejaVuSans-63"/>
       <use xlink:href="#DejaVuSans-61" x="54.980469"/>
       <use xlink:href="#DejaVuSans-72" x="116.259766"/>
      </g>
     </g>
    </g>
    <g id="xtick_15">
     <g id="line2d_15">
      <g>
       <use xlink:href="#m7e4fea11a4" x="646.249985" y="353.599445" style="stroke: #000000; stroke-width: 0.8"/>
      </g>
     </g>
     <g id="text_15">
      <!-- truck -->
      <g transform="translate(626.636611 384.115165) rotate(-45) scale(0.1 -0.1)">
       <use xlink:href="#DejaVuSans-74"/>
       <use xlink:href="#DejaVuSans-72" x="39.208984"/>
       <use xlink:href="#DejaVuSans-75" x="80.322266"/>
       <use xlink:href="#DejaVuSans-63" x="143.701172"/>
       <use xlink:href="#DejaVuSans-6b" x="198.681641"/>
      </g>
     </g>
    </g>
    <g id="xtick_16">
     <g id="line2d_16">
      <g>
       <use xlink:href="#m7e4fea11a4" x="685.407982" y="353.599445" style="stroke: #000000; stroke-width: 0.8"/>
      </g>
     </g>
     <g id="text_16">
      <!-- bus -->
      <g transform="translate(671.283525 378.626248) rotate(-45) scale(0.1 -0.1)">
       <use xlink:href="#DejaVuSans-62"/>
       <use xlink:href="#DejaVuSans-75" x="63.476562"/>
       <use xlink:href="#DejaVuSans-73" x="126.855469"/>
      </g>
     </g>
    </g>
    <g id="xtick_17">
     <g id="line2d_17">
      <g>
       <use xlink:href="#m7e4fea11a4" x="724.56598" y="353.599445" style="stroke: #000000; stroke-width: 0.8"/>
      </g>
     </g>
     <g id="text_17">
      <!-- train -->
      <g transform="translate(706.637508 382.430262) rotate(-45) scale(0.1 -0.1)">
       <use xlink:href="#DejaVuSans-74"/>
       <use xlink:href="#DejaVuSans-72" x="39.208984"/>
       <use xlink:href="#DejaVuSans-61" x="80.322266"/>
       <use xlink:href="#DejaVuSans-69" x="141.601562"/>
       <use xlink:href="#DejaVuSans-6e" x="169.384766"/>
      </g>
     </g>
    </g>
    <g id="xtick_18">
     <g id="line2d_18">
      <g>
       <use xlink:href="#m7e4fea11a4" x="763.723977" y="353.599445" style="stroke: #000000; stroke-width: 0.8"/>
      </g>
     </g>
     <g id="text_18">
      <!-- motorcycle -->
      <g transform="translate(722.916181 405.309586) rotate(-45) scale(0.1 -0.1)">
       <defs>
        <path id="DejaVuSans-6d" d="M 3328 2828 
Q 3544 3216 3844 3400 
Q 4144 3584 4550 3584 
Q 5097 3584 5394 3201 
Q 5691 2819 5691 2113 
L 5691 0 
L 5113 0 
L 5113 2094 
Q 5113 2597 4934 2840 
Q 4756 3084 4391 3084 
Q 3944 3084 3684 2787 
Q 3425 2491 3425 1978 
L 3425 0 
L 2847 0 
L 2847 2094 
Q 2847 2600 2669 2842 
Q 2491 3084 2119 3084 
Q 1678 3084 1418 2786 
Q 1159 2488 1159 1978 
L 1159 0 
L 581 0 
L 581 3500 
L 1159 3500 
L 1159 2956 
Q 1356 3278 1631 3431 
Q 1906 3584 2284 3584 
Q 2666 3584 2933 3390 
Q 3200 3197 3328 2828 
z
" transform="scale(0.015625)"/>
       </defs>
       <use xlink:href="#DejaVuSans-6d"/>
       <use xlink:href="#DejaVuSans-6f" x="97.412109"/>
       <use xlink:href="#DejaVuSans-74" x="158.59375"/>
       <use xlink:href="#DejaVuSans-6f" x="197.802734"/>
       <use xlink:href="#DejaVuSans-72" x="258.984375"/>
       <use xlink:href="#DejaVuSans-63" x="297.847656"/>
       <use xlink:href="#DejaVuSans-79" x="352.828125"/>
       <use xlink:href="#DejaVuSans-63" x="412.007812"/>
       <use xlink:href="#DejaVuSans-6c" x="466.988281"/>
       <use xlink:href="#DejaVuSans-65" x="494.771484"/>
      </g>
     </g>
    </g>
    <g id="xtick_19">
     <g id="line2d_19">
      <g>
       <use xlink:href="#m7e4fea11a4" x="802.881974" y="353.599445" style="stroke: #000000; stroke-width: 0.8"/>
      </g>
     </g>
     <g id="text_19">
      <!-- bicycle -->
      <g transform="translate(776.681458 390.702306) rotate(-45) scale(0.1 -0.1)">
       <use xlink:href="#DejaVuSans-62"/>
       <use xlink:href="#DejaVuSans-69" x="63.476562"/>
       <use xlink:href="#DejaVuSans-63" x="91.259766"/>
       <use xlink:href="#DejaVuSans-79" x="146.240234"/>
       <use xlink:href="#DejaVuSans-63" x="205.419922"/>
       <use xlink:href="#DejaVuSans-6c" x="260.400391"/>
       <use xlink:href="#DejaVuSans-65" x="288.183594"/>
      </g>
     </g>
    </g>
    <g id="text_20">
     <!-- Classes -->
     <g transform="translate(431.624844 418.378584) scale(0.1 -0.1)">
      <defs>
       <path id="DejaVuSans-43" d="M 4122 4306 
L 4122 3641 
Q 3803 3938 3442 4084 
Q 3081 4231 2675 4231 
Q 1875 4231 1450 3742 
Q 1025 3253 1025 2328 
Q 1025 1406 1450 917 
Q 1875 428 2675 428 
Q 3081 428 3442 575 
Q 3803 722 4122 1019 
L 4122 359 
Q 3791 134 3420 21 
Q 3050 -91 2638 -91 
Q 1578 -91 968 557 
Q 359 1206 359 2328 
Q 359 3453 968 4101 
Q 1578 4750 2638 4750 
Q 3056 4750 3426 4639 
Q 3797 4528 4122 4306 
z
" transform="scale(0.015625)"/>
      </defs>
      <use xlink:href="#DejaVuSans-43"/>
      <use xlink:href="#DejaVuSans-6c" x="69.824219"/>
      <use xlink:href="#DejaVuSans-61" x="97.607422"/>
      <use xlink:href="#DejaVuSans-73" x="158.886719"/>
      <use xlink:href="#DejaVuSans-73" x="210.986328"/>
      <use xlink:href="#DejaVuSans-65" x="263.085938"/>
      <use xlink:href="#DejaVuSans-73" x="324.609375"/>
     </g>
    </g>
   </g>
   <g id="matplotlib.axis_2">
    <g id="ytick_1">
     <g id="line2d_20">
      <path d="M 47.72 353.599445 
L 853.2 353.599445 
" clip-path="url(#p982a6ef8d5)" style="fill: none; stroke: #b0b0b0; stroke-width: 0.8; stroke-linecap: square"/>
     </g>
     <g id="line2d_21">
      <defs>
       <path id="me838e11bf1" d="M 0 0 
L -3.5 0 
" style="stroke: #000000; stroke-width: 0.8"/>
      </defs>
      <g>
       <use xlink:href="#me838e11bf1" x="47.72" y="353.599445" style="stroke: #000000; stroke-width: 0.8"/>
      </g>
     </g>
     <g id="text_21">
      <!-- 0.0 -->
      <g transform="translate(24.816875 357.398664) scale(0.1 -0.1)">
       <defs>
        <path id="DejaVuSans-30" d="M 2034 4250 
Q 1547 4250 1301 3770 
Q 1056 3291 1056 2328 
Q 1056 1369 1301 889 
Q 1547 409 2034 409 
Q 2525 409 2770 889 
Q 3016 1369 3016 2328 
Q 3016 3291 2770 3770 
Q 2525 4250 2034 4250 
z
M 2034 4750 
Q 2819 4750 3233 4129 
Q 3647 3509 3647 2328 
Q 3647 1150 3233 529 
Q 2819 -91 2034 -91 
Q 1250 -91 836 529 
Q 422 1150 422 2328 
Q 422 3509 836 4129 
Q 1250 4750 2034 4750 
z
" transform="scale(0.015625)"/>
        <path id="DejaVuSans-2e" d="M 684 794 
L 1344 794 
L 1344 0 
L 684 0 
L 684 794 
z
" transform="scale(0.015625)"/>
       </defs>
       <use xlink:href="#DejaVuSans-30"/>
       <use xlink:href="#DejaVuSans-2e" x="63.623047"/>
       <use xlink:href="#DejaVuSans-30" x="95.410156"/>
      </g>
     </g>
    </g>
    <g id="ytick_2">
     <g id="line2d_22">
      <path d="M 47.72 287.732469 
L 853.2 287.732469 
" clip-path="url(#p982a6ef8d5)" style="fill: none; stroke: #b0b0b0; stroke-width: 0.8; stroke-linecap: square"/>
     </g>
     <g id="line2d_23">
      <g>
       <use xlink:href="#me838e11bf1" x="47.72" y="287.732469" style="stroke: #000000; stroke-width: 0.8"/>
      </g>
     </g>
     <g id="text_22">
      <!-- 0.2 -->
      <g transform="translate(24.816875 291.531688) scale(0.1 -0.1)">
       <defs>
        <path id="DejaVuSans-32" d="M 1228 531 
L 3431 531 
L 3431 0 
L 469 0 
L 469 531 
Q 828 903 1448 1529 
Q 2069 2156 2228 2338 
Q 2531 2678 2651 2914 
Q 2772 3150 2772 3378 
Q 2772 3750 2511 3984 
Q 2250 4219 1831 4219 
Q 1534 4219 1204 4116 
Q 875 4013 500 3803 
L 500 4441 
Q 881 4594 1212 4672 
Q 1544 4750 1819 4750 
Q 2544 4750 2975 4387 
Q 3406 4025 3406 3419 
Q 3406 3131 3298 2873 
Q 3191 2616 2906 2266 
Q 2828 2175 2409 1742 
Q 1991 1309 1228 531 
z
" transform="scale(0.015625)"/>
       </defs>
       <use xlink:href="#DejaVuSans-30"/>
       <use xlink:href="#DejaVuSans-2e" x="63.623047"/>
       <use xlink:href="#DejaVuSans-32" x="95.410156"/>
      </g>
     </g>
    </g>
    <g id="ytick_3">
     <g id="line2d_24">
      <path d="M 47.72 221.865493 
L 853.2 221.865493 
" clip-path="url(#p982a6ef8d5)" style="fill: none; stroke: #b0b0b0; stroke-width: 0.8; stroke-linecap: square"/>
     </g>
     <g id="line2d_25">
      <g>
       <use xlink:href="#me838e11bf1" x="47.72" y="221.865493" style="stroke: #000000; stroke-width: 0.8"/>
      </g>
     </g>
     <g id="text_23">
      <!-- 0.4 -->
      <g transform="translate(24.816875 225.664711) scale(0.1 -0.1)">
       <defs>
        <path id="DejaVuSans-34" d="M 2419 4116 
L 825 1625 
L 2419 1625 
L 2419 4116 
z
M 2253 4666 
L 3047 4666 
L 3047 1625 
L 3713 1625 
L 3713 1100 
L 3047 1100 
L 3047 0 
L 2419 0 
L 2419 1100 
L 313 1100 
L 313 1709 
L 2253 4666 
z
" transform="scale(0.015625)"/>
       </defs>
       <use xlink:href="#DejaVuSans-30"/>
       <use xlink:href="#DejaVuSans-2e" x="63.623047"/>
       <use xlink:href="#DejaVuSans-34" x="95.410156"/>
      </g>
     </g>
    </g>
    <g id="ytick_4">
     <g id="line2d_26">
      <path d="M 47.72 155.998517 
L 853.2 155.998517 
" clip-path="url(#p982a6ef8d5)" style="fill: none; stroke: #b0b0b0; stroke-width: 0.8; stroke-linecap: square"/>
     </g>
     <g id="line2d_27">
      <g>
       <use xlink:href="#me838e11bf1" x="47.72" y="155.998517" style="stroke: #000000; stroke-width: 0.8"/>
      </g>
     </g>
     <g id="text_24">
      <!-- 0.6 -->
      <g transform="translate(24.816875 159.797735) scale(0.1 -0.1)">
       <defs>
        <path id="DejaVuSans-36" d="M 2113 2584 
Q 1688 2584 1439 2293 
Q 1191 2003 1191 1497 
Q 1191 994 1439 701 
Q 1688 409 2113 409 
Q 2538 409 2786 701 
Q 3034 994 3034 1497 
Q 3034 2003 2786 2293 
Q 2538 2584 2113 2584 
z
M 3366 4563 
L 3366 3988 
Q 3128 4100 2886 4159 
Q 2644 4219 2406 4219 
Q 1781 4219 1451 3797 
Q 1122 3375 1075 2522 
Q 1259 2794 1537 2939 
Q 1816 3084 2150 3084 
Q 2853 3084 3261 2657 
Q 3669 2231 3669 1497 
Q 3669 778 3244 343 
Q 2819 -91 2113 -91 
Q 1303 -91 875 529 
Q 447 1150 447 2328 
Q 447 3434 972 4092 
Q 1497 4750 2381 4750 
Q 2619 4750 2861 4703 
Q 3103 4656 3366 4563 
z
" transform="scale(0.015625)"/>
       </defs>
       <use xlink:href="#DejaVuSans-30"/>
       <use xlink:href="#DejaVuSans-2e" x="63.623047"/>
       <use xlink:href="#DejaVuSans-36" x="95.410156"/>
      </g>
     </g>
    </g>
    <g id="ytick_5">
     <g id="line2d_28">
      <path d="M 47.72 90.131541 
L 853.2 90.131541 
" clip-path="url(#p982a6ef8d5)" style="fill: none; stroke: #b0b0b0; stroke-width: 0.8; stroke-linecap: square"/>
     </g>
     <g id="line2d_29">
      <g>
       <use xlink:href="#me838e11bf1" x="47.72" y="90.131541" style="stroke: #000000; stroke-width: 0.8"/>
      </g>
     </g>
     <g id="text_25">
      <!-- 0.8 -->
      <g transform="translate(24.816875 93.930759) scale(0.1 -0.1)">
       <defs>
        <path id="DejaVuSans-38" d="M 2034 2216 
Q 1584 2216 1326 1975 
Q 1069 1734 1069 1313 
Q 1069 891 1326 650 
Q 1584 409 2034 409 
Q 2484 409 2743 651 
Q 3003 894 3003 1313 
Q 3003 1734 2745 1975 
Q 2488 2216 2034 2216 
z
M 1403 2484 
Q 997 2584 770 2862 
Q 544 3141 544 3541 
Q 544 4100 942 4425 
Q 1341 4750 2034 4750 
Q 2731 4750 3128 4425 
Q 3525 4100 3525 3541 
Q 3525 3141 3298 2862 
Q 3072 2584 2669 2484 
Q 3125 2378 3379 2068 
Q 3634 1759 3634 1313 
Q 3634 634 3220 271 
Q 2806 -91 2034 -91 
Q 1263 -91 848 271 
Q 434 634 434 1313 
Q 434 1759 690 2068 
Q 947 2378 1403 2484 
z
M 1172 3481 
Q 1172 3119 1398 2916 
Q 1625 2713 2034 2713 
Q 2441 2713 2670 2916 
Q 2900 3119 2900 3481 
Q 2900 3844 2670 4047 
Q 2441 4250 2034 4250 
Q 1625 4250 1398 4047 
Q 1172 3844 1172 3481 
z
" transform="scale(0.015625)"/>
       </defs>
       <use xlink:href="#DejaVuSans-30"/>
       <use xlink:href="#DejaVuSans-2e" x="63.623047"/>
       <use xlink:href="#DejaVuSans-38" x="95.410156"/>
      </g>
     </g>
    </g>
    <g id="text_26">
     <!-- IoU -->
     <g transform="translate(18.737188 198.433472) rotate(-90) scale(0.1 -0.1)">
      <defs>
       <path id="DejaVuSans-49" d="M 628 4666 
L 1259 4666 
L 1259 0 
L 628 0 
L 628 4666 
z
" transform="scale(0.015625)"/>
       <path id="DejaVuSans-55" d="M 556 4666 
L 1191 4666 
L 1191 1831 
Q 1191 1081 1462 751 
Q 1734 422 2344 422 
Q 2950 422 3222 751 
Q 3494 1081 3494 1831 
L 3494 4666 
L 4128 4666 
L 4128 1753 
Q 4128 841 3676 375 
Q 3225 -91 2344 -91 
Q 1459 -91 1007 375 
Q 556 841 556 1753 
L 556 4666 
z
" transform="scale(0.015625)"/>
      </defs>
      <use xlink:href="#DejaVuSans-49"/>
      <use xlink:href="#DejaVuSans-6f" x="29.492188"/>
      <use xlink:href="#DejaVuSans-55" x="90.673828"/>
     </g>
    </g>
   </g>
   <g id="patch_41">
    <path d="M 47.72 353.599445 
L 47.72 26.88 
" style="fill: none; stroke: #000000; stroke-width: 0.8; stroke-linejoin: miter; stroke-linecap: square"/>
   </g>
   <g id="patch_42">
    <path d="M 853.2 353.599445 
L 853.2 26.88 
" style="fill: none; stroke: #000000; stroke-width: 0.8; stroke-linejoin: miter; stroke-linecap: square"/>
   </g>
   <g id="patch_43">
    <path d="M 47.72 353.599445 
L 853.2 353.599445 
" style="fill: none; stroke: #000000; stroke-width: 0.8; stroke-linejoin: miter; stroke-linecap: square"/>
   </g>
   <g id="patch_44">
    <path d="M 47.72 26.88 
L 853.2 26.88 
" style="fill: none; stroke: #000000; stroke-width: 0.8; stroke-linejoin: miter; stroke-linecap: square"/>
   </g>
   <g id="text_27">
    <!-- Training and Validation IoU for Each Class (DeepLabV2) -->
    <g transform="translate(284.84125 20.88) scale(0.12 -0.12)">
     <defs>
      <path id="DejaVuSans-54" d="M -19 4666 
L 3928 4666 
L 3928 4134 
L 2272 4134 
L 2272 0 
L 1638 0 
L 1638 4134 
L -19 4134 
L -19 4666 
z
" transform="scale(0.015625)"/>
      <path id="DejaVuSans-20" transform="scale(0.015625)"/>
      <path id="DejaVuSans-56" d="M 1831 0 
L 50 4666 
L 709 4666 
L 2188 738 
L 3669 4666 
L 4325 4666 
L 2547 0 
L 1831 0 
z
" transform="scale(0.015625)"/>
      <path id="DejaVuSans-45" d="M 628 4666 
L 3578 4666 
L 3578 4134 
L 1259 4134 
L 1259 2753 
L 3481 2753 
L 3481 2222 
L 1259 2222 
L 1259 531 
L 3634 531 
L 3634 0 
L 628 0 
L 628 4666 
z
" transform="scale(0.015625)"/>
      <path id="DejaVuSans-28" d="M 1984 4856 
Q 1566 4138 1362 3434 
Q 1159 2731 1159 2009 
Q 1159 1288 1364 580 
Q 1569 -128 1984 -844 
L 1484 -844 
Q 1016 -109 783 600 
Q 550 1309 550 2009 
Q 550 2706 781 3412 
Q 1013 4119 1484 4856 
L 1984 4856 
z
" transform="scale(0.015625)"/>
      <path id="DejaVuSans-44" d="M 1259 4147 
L 1259 519 
L 2022 519 
Q 2988 519 3436 956 
Q 3884 1394 3884 2338 
Q 3884 3275 3436 3711 
Q 2988 4147 2022 4147 
L 1259 4147 
z
M 628 4666 
L 1925 4666 
Q 3281 4666 3915 4102 
Q 4550 3538 4550 2338 
Q 4550 1131 3912 565 
Q 3275 0 1925 0 
L 628 0 
L 628 4666 
z
" transform="scale(0.015625)"/>
      <path id="DejaVuSans-4c" d="M 628 4666 
L 1259 4666 
L 1259 531 
L 3531 531 
L 3531 0 
L 628 0 
L 628 4666 
z
" transform="scale(0.015625)"/>
      <path id="DejaVuSans-29" d="M 513 4856 
L 1013 4856 
Q 1481 4119 1714 3412 
Q 1947 2706 1947 2009 
Q 1947 1309 1714 600 
Q 1481 -109 1013 -844 
L 513 -844 
Q 928 -128 1133 580 
Q 1338 1288 1338 2009 
Q 1338 2731 1133 3434 
Q 928 4138 513 4856 
z
" transform="scale(0.015625)"/>
     </defs>
     <use xlink:href="#DejaVuSans-54"/>
     <use xlink:href="#DejaVuSans-72" x="46.333984"/>
     <use xlink:href="#DejaVuSans-61" x="87.447266"/>
     <use xlink:href="#DejaVuSans-69" x="148.726562"/>
     <use xlink:href="#DejaVuSans-6e" x="176.509766"/>
     <use xlink:href="#DejaVuSans-69" x="239.888672"/>
     <use xlink:href="#DejaVuSans-6e" x="267.671875"/>
     <use xlink:href="#DejaVuSans-67" x="331.050781"/>
     <use xlink:href="#DejaVuSans-20" x="394.527344"/>
     <use xlink:href="#DejaVuSans-61" x="426.314453"/>
     <use xlink:href="#DejaVuSans-6e" x="487.59375"/>
     <use xlink:href="#DejaVuSans-64" x="550.972656"/>
     <use xlink:href="#DejaVuSans-20" x="614.449219"/>
     <use xlink:href="#DejaVuSans-56" x="646.236328"/>
     <use xlink:href="#DejaVuSans-61" x="706.894531"/>
     <use xlink:href="#DejaVuSans-6c" x="768.173828"/>
     <use xlink:href="#DejaVuSans-69" x="795.957031"/>
     <use xlink:href="#DejaVuSans-64" x="823.740234"/>
     <use xlink:href="#DejaVuSans-61" x="887.216797"/>
     <use xlink:href="#DejaVuSans-74" x="948.496094"/>
     <use xlink:href="#DejaVuSans-69" x="987.705078"/>
     <use xlink:href="#DejaVuSans-6f" x="1015.488281"/>
     <use xlink:href="#DejaVuSans-6e" x="1076.669922"/>
     <use xlink:href="#DejaVuSans-20" x="1140.048828"/>
     <use xlink:href="#DejaVuSans-49" x="1171.835938"/>
     <use xlink:href="#DejaVuSans-6f" x="1201.328125"/>
     <use xlink:href="#DejaVuSans-55" x="1262.509766"/>
     <use xlink:href="#DejaVuSans-20" x="1335.703125"/>
     <use xlink:href="#DejaVuSans-66" x="1367.490234"/>
     <use xlink:href="#DejaVuSans-6f" x="1402.695312"/>
     <use xlink:href="#DejaVuSans-72" x="1463.876953"/>
     <use xlink:href="#DejaVuSans-20" x="1504.990234"/>
     <use xlink:href="#DejaVuSans-45" x="1536.777344"/>
     <use xlink:href="#DejaVuSans-61" x="1599.960938"/>
     <use xlink:href="#DejaVuSans-63" x="1661.240234"/>
     <use xlink:href="#DejaVuSans-68" x="1716.220703"/>
     <use xlink:href="#DejaVuSans-20" x="1779.599609"/>
     <use xlink:href="#DejaVuSans-43" x="1811.386719"/>
     <use xlink:href="#DejaVuSans-6c" x="1881.210938"/>
     <use xlink:href="#DejaVuSans-61" x="1908.994141"/>
     <use xlink:href="#DejaVuSans-73" x="1970.273438"/>
     <use xlink:href="#DejaVuSans-73" x="2022.373047"/>
     <use xlink:href="#DejaVuSans-20" x="2074.472656"/>
     <use xlink:href="#DejaVuSans-28" x="2106.259766"/>
     <use xlink:href="#DejaVuSans-44" x="2145.273438"/>
     <use xlink:href="#DejaVuSans-65" x="2222.275391"/>
     <use xlink:href="#DejaVuSans-65" x="2283.798828"/>
     <use xlink:href="#DejaVuSans-70" x="2345.322266"/>
     <use xlink:href="#DejaVuSans-4c" x="2408.798828"/>
     <use xlink:href="#DejaVuSans-61" x="2464.511719"/>
     <use xlink:href="#DejaVuSans-62" x="2525.791016"/>
     <use xlink:href="#DejaVuSans-56" x="2589.267578"/>
     <use xlink:href="#DejaVuSans-32" x="2657.675781"/>
     <use xlink:href="#DejaVuSans-29" x="2721.298828"/>
    </g>
   </g>
   <g id="legend_1">
    <g id="patch_45">
     <path d="M 680.003125 64.23625 
L 846.2 64.23625 
Q 848.2 64.23625 848.2 62.23625 
L 848.2 33.88 
Q 848.2 31.88 846.2 31.88 
L 680.003125 31.88 
Q 678.003125 31.88 678.003125 33.88 
L 678.003125 62.23625 
Q 678.003125 64.23625 680.003125 64.23625 
z
" style="fill: #ffffff; opacity: 0.8; stroke: #cccccc; stroke-linejoin: miter"/>
    </g>
    <g id="patch_46">
     <path d="M 682.003125 43.478437 
L 702.003125 43.478437 
L 702.003125 36.478437 
L 682.003125 36.478437 
z
" style="fill: #1f77b4"/>
    </g>
    <g id="text_28">
     <!-- Train IoU - CityScapes -->
     <g transform="translate(710.003125 43.478437) scale(0.1 -0.1)">
      <defs>
       <path id="DejaVuSans-2d" d="M 313 2009 
L 1997 2009 
L 1997 1497 
L 313 1497 
L 313 2009 
z
" transform="scale(0.015625)"/>
       <path id="DejaVuSans-53" d="M 3425 4513 
L 3425 3897 
Q 3066 4069 2747 4153 
Q 2428 4238 2131 4238 
Q 1616 4238 1336 4038 
Q 1056 3838 1056 3469 
Q 1056 3159 1242 3001 
Q 1428 2844 1947 2747 
L 2328 2669 
Q 3034 2534 3370 2195 
Q 3706 1856 3706 1288 
Q 3706 609 3251 259 
Q 2797 -91 1919 -91 
Q 1588 -91 1214 -16 
Q 841 59 441 206 
L 441 856 
Q 825 641 1194 531 
Q 1563 422 1919 422 
Q 2459 422 2753 634 
Q 3047 847 3047 1241 
Q 3047 1584 2836 1778 
Q 2625 1972 2144 2069 
L 1759 2144 
Q 1053 2284 737 2584 
Q 422 2884 422 3419 
Q 422 4038 858 4394 
Q 1294 4750 2059 4750 
Q 2388 4750 2728 4690 
Q 3069 4631 3425 4513 
z
" transform="scale(0.015625)"/>
      </defs>
      <use xlink:href="#DejaVuSans-54"/>
      <use xlink:href="#DejaVuSans-72" x="46.333984"/>
      <use xlink:href="#DejaVuSans-61" x="87.447266"/>
      <use xlink:href="#DejaVuSans-69" x="148.726562"/>
      <use xlink:href="#DejaVuSans-6e" x="176.509766"/>
      <use xlink:href="#DejaVuSans-20" x="239.888672"/>
      <use xlink:href="#DejaVuSans-49" x="271.675781"/>
      <use xlink:href="#DejaVuSans-6f" x="301.167969"/>
      <use xlink:href="#DejaVuSans-55" x="362.349609"/>
      <use xlink:href="#DejaVuSans-20" x="435.542969"/>
      <use xlink:href="#DejaVuSans-2d" x="467.330078"/>
      <use xlink:href="#DejaVuSans-20" x="503.414062"/>
      <use xlink:href="#DejaVuSans-43" x="535.201172"/>
      <use xlink:href="#DejaVuSans-69" x="605.025391"/>
      <use xlink:href="#DejaVuSans-74" x="632.808594"/>
      <use xlink:href="#DejaVuSans-79" x="672.017578"/>
      <use xlink:href="#DejaVuSans-53" x="731.197266"/>
      <use xlink:href="#DejaVuSans-63" x="794.673828"/>
      <use xlink:href="#DejaVuSans-61" x="849.654297"/>
      <use xlink:href="#DejaVuSans-70" x="910.933594"/>
      <use xlink:href="#DejaVuSans-65" x="974.410156"/>
      <use xlink:href="#DejaVuSans-73" x="1035.933594"/>
     </g>
    </g>
    <g id="patch_47">
     <path d="M 682.003125 58.156563 
L 702.003125 58.156563 
L 702.003125 51.156563 
L 682.003125 51.156563 
z
" style="fill: #ff7f0e"/>
    </g>
    <g id="text_29">
     <!-- Validation IoU - CityScapes -->
     <g transform="translate(710.003125 58.156563) scale(0.1 -0.1)">
      <use xlink:href="#DejaVuSans-56"/>
      <use xlink:href="#DejaVuSans-61" x="60.658203"/>
      <use xlink:href="#DejaVuSans-6c" x="121.9375"/>
      <use xlink:href="#DejaVuSans-69" x="149.720703"/>
      <use xlink:href="#DejaVuSans-64" x="177.503906"/>
      <use xlink:href="#DejaVuSans-61" x="240.980469"/>
      <use xlink:href="#DejaVuSans-74" x="302.259766"/>
      <use xlink:href="#DejaVuSans-69" x="341.46875"/>
      <use xlink:href="#DejaVuSans-6f" x="369.251953"/>
      <use xlink:href="#DejaVuSans-6e" x="430.433594"/>
      <use xlink:href="#DejaVuSans-20" x="493.8125"/>
      <use xlink:href="#DejaVuSans-49" x="525.599609"/>
      <use xlink:href="#DejaVuSans-6f" x="555.091797"/>
      <use xlink:href="#DejaVuSans-55" x="616.273438"/>
      <use xlink:href="#DejaVuSans-20" x="689.466797"/>
      <use xlink:href="#DejaVuSans-2d" x="721.253906"/>
      <use xlink:href="#DejaVuSans-20" x="757.337891"/>
      <use xlink:href="#DejaVuSans-43" x="789.125"/>
      <use xlink:href="#DejaVuSans-69" x="858.949219"/>
      <use xlink:href="#DejaVuSans-74" x="886.732422"/>
      <use xlink:href="#DejaVuSans-79" x="925.941406"/>
      <use xlink:href="#DejaVuSans-53" x="985.121094"/>
      <use xlink:href="#DejaVuSans-63" x="1048.597656"/>
      <use xlink:href="#DejaVuSans-61" x="1103.578125"/>
      <use xlink:href="#DejaVuSans-70" x="1164.857422"/>
      <use xlink:href="#DejaVuSans-65" x="1228.333984"/>
      <use xlink:href="#DejaVuSans-73" x="1289.857422"/>
     </g>
    </g>
   </g>
  </g>
 </g>
 <defs>
  <clipPath id="p982a6ef8d5">
   <rect x="47.72" y="26.88" width="805.48" height="326.719445"/>
  </clipPath>
 </defs>
</svg>
